<svg xmlns="http://www.w3.org/2000/svg" style="display:none">
  <symbol id="logo" viewBox="0 0 2245 1024">
    <path fill="#8CD3F5" d="M1125.861 234.888c10.265-47.254 49.3-69.834 129.426-69.834 95.564 0 137.65 20.54 137.65 59.57 0 28.759-9.21 41.075-65.711 45.214l-216.802 14.345c-156.113 10.302-240.357 55.49-240.357 181.858 0 116.104 94.514 173.628 272.243 173.628 109.919 0 199.292-14.382 261.92-73.974 1.050 15.432 4.134 34.95 11.357 51.367h217.776c-17.467-31.855-22.629-53.407-22.629-100.672v-281.502c0-156.145-152.049-189.028-354.393-189.028-170.533 0-327.739 23.63-348.273 189.028h217.793zM1399.133 391.038c0 76.051-69.84 123.273-195.18 123.273-58.574 0-97.609-24.658-97.609-67.821 0-33.868 18.495-51.34 62.665-56.48l146.903-17.472c40.036-5.103 66.772-10.275 83.221-15.405v33.905z"></path>
    <path fill="#8CD3F5" d="M1688.891 617.056h217.787v-215.72c0-100.699 55.447-164.402 179.775-164.402 41.070 0 92.479 8.225 120.232 18.489v-203.41c-21.595-4.112-50.398-6.152-73.99-6.152-98.605 0-183.86 50.322-227.035 124.296h-2.088v-109.941h-214.681v556.84z"></path>
    <path fill="#8CD3F5" d="M620.824 399.215c-14.388 70.889-68.866 105.801-151.037 105.801-104.789 0-164.418-56.475-164.418-157.173 0-100.666 61.674-157.206 163.396-157.206 92.479 0 137.672 34.955 147.942 95.537h223.94c-19.512-176.658-167.465-239.345-375.009-239.345-239.345 0-390.355 99.681-390.355 301.008 0 205.445 143.808 301.014 390.355 301.014 244.534 0 352.434-90.434 385.279-249.636h-230.092z"></path>
    <path fill="#8CD3F5" d="M1077.154 862.849c-5.517 29.518-26.321 44.014-57.767 44.014-40.149 0-62.912-23.484-62.912-65.335 0-41.839 23.581-65.361 62.466-65.361 35.434 0 52.696 14.533 56.625 39.74h85.735c-7.476-73.457-64.097-99.531-143.507-99.531-91.564 0-149.401 41.436-149.401 125.147 0 85.412 55.038 125.098 149.401 125.098 93.577 0 134.808-37.544 147.441-103.777h-88.082z"></path>
    <path fill="#8CD3F5" d="M1321.111 776.167c37.754 0 61.341 21.794 61.341 65.361s-23.592 65.335-61.341 65.335c-37.786 0-61.308-21.762-61.308-65.335s23.528-65.361 61.308-65.361zM1171.727 841.528c0 81.972 53.089 125.098 149.385 125.098 96.344 0 149.433-43.126 149.433-125.098 0-81.983-53.084-125.147-149.433-125.147-96.296 0-149.385 43.163-149.385 125.147z"></path>
    <path fill="#8CD3F5" d="M1486.17 957.282h83.329v-129.415c0-23.501 16.105-39.751 46.797-39.751 22.392 0 35.773 11.993 35.773 34.158v135.008h83.356v-129.415c0-23.501 16.073-39.751 46.743-39.751 22.403 0 35.784 11.993 35.784 34.158v135.008h83.329v-158.874c0-57.686-38.115-78.581-82.537-78.581-42.464 0-67.245 15.814-89.632 39.719-18.888-31.198-45.979-39.719-75.47-39.719-40.51 0-65.684 18.36-85.724 39.719h-0.77v-33.765h-80.982v231.502z"></path>
    <path fill="#6C0" d="M744.775 856.018l-186.089-167.96v80.912c-370.401 0-503.019-213.266-499.063-419.491-2.6 21.859-3.956 44.127-3.956 66.734 0 292.762 225.086 530.196 503.019 530.966v76.816l186.089-167.976z"></path>
    <path fill="transparent" d="M771.581 880.913h81.213v81.213h-81.213v-81.213z"></path>
  </symbol>
  <symbol id="back_arrow" viewBox="0 0 1024 1024">
    <path fill="#999" class="path1" d="M402.746 877.254l-320-320c-24.994-24.992-24.994-65.516 0-90.51l320-320c24.994-24.992 65.516-24.992 90.51 0 24.994 24.994 24.994 65.516 0 90.51l-210.746 210.746h613.49c35.346 0 64 28.654 64 64s-28.654 64-64 64h-613.49l210.746 210.746c12.496 12.496 18.744 28.876 18.744 45.254s-6.248 32.758-18.744 45.254c-24.994 24.994-65.516 24.994-90.51 0z"></path>
  </symbol>
  <symbol id="input_not_valid" viewBox="0 0 22 28">
    <path class="path1" d="M20.281 20.656q0 0.625-0.438 1.062l-2.125 2.125q-0.438 0.438-1.062 0.438t-1.062-0.438l-4.594-4.594-4.594 4.594q-0.438 0.438-1.062 0.438t-1.062-0.438l-2.125-2.125q-0.438-0.438-0.438-1.062t0.438-1.062l4.594-4.594-4.594-4.594q-0.438-0.438-0.438-1.062t0.438-1.062l2.125-2.125q0.438-0.438 1.062-0.438t1.062 0.438l4.594 4.594 4.594-4.594q0.438-0.438 1.062-0.438t1.062 0.438l2.125 2.125q0.438 0.438 0.438 1.062t-0.438 1.062l-4.594 4.594 4.594 4.594q0.438 0.438 0.438 1.062z"></path>
  </symbol>
  <symbol id="input_valid" viewBox="0 0 42 42">
    <path class="path1" d="M39.164 13.266q0 0.937-0.656 1.594l-20.156 20.156q-0.656 0.656-1.594 0.656t-1.594-0.656l-11.672-11.672q-0.656-0.656-0.656-1.594t0.656-1.594l3.187-3.187q0.656-0.656 1.594-0.656t1.594 0.656l6.891 6.914 15.375-15.398q0.656-0.656 1.594-0.656t1.594 0.656l3.187 3.187q0.656 0.656 0.656 1.594z"></path>
  </symbol>
  <symbol id="input_loader" viewBox="0 0 40 40">
    <path opacity="0.3" fill="#317EAD" d="M20.201,5.169c-8.254,0-14.946,6.692-14.946,14.946c0,8.255,6.692,14.946,14.946,14.946
      s14.946-6.691,14.946-14.946C35.146,11.861,28.455,5.169,20.201,5.169z M20.201,31.749c-6.425,0-11.634-5.208-11.634-11.634
      c0-6.425,5.209-11.634,11.634-11.634c6.425,0,11.633,5.209,11.633,11.634C31.834,26.541,26.626,31.749,20.201,31.749z"/>
    <path fill="#317EAD" d="M26.013,10.047l1.654-2.866c-2.198-1.272-4.743-2.012-7.466-2.012h0v3.312h0
      C22.32,8.481,24.301,9.057,26.013,10.047z" />
  </symbol>
</svg>
